<svg width="20" height="16" viewBox="0 0 20 16" fill="none" xmlns="http://www.w3.org/2000/svg">
<path d="M13.4829 13.7144L1.46005 13.7144M13.4829 7.62216L5.96862 7.62216M13.4829 1.52388L1.46005 1.52388" stroke="white" stroke-linecap="round" stroke-linejoin="round"/>
<path fill-rule="evenodd" clip-rule="evenodd" d="M17.9933 12.1904C17.2418 12.1904 16.4904 12.9523 16.4904 13.7142C16.4904 14.4761 17.2418 15.238 17.9933 15.238C18.7447 15.238 19.4946 14.4761 19.4946 13.7142C19.4946 12.9523 18.7447 12.1904 17.9933 12.1904ZM17.9933 6.09518C17.2418 6.09518 16.4904 6.85709 16.4904 7.61899C16.4904 8.38089 17.2418 9.1428 17.9933 9.1428C18.7447 9.1428 19.4946 8.38089 19.4946 7.61899C19.4946 6.85709 18.7447 6.09518 17.9933 6.09518ZM17.9933 -5.72205e-05C17.2418 -5.72205e-05 16.4904 0.761847 16.4904 1.52375C16.4904 2.28566 17.2418 3.04756 17.9933 3.04756C18.7447 3.04756 19.4946 2.28566 19.4946 1.52375C19.4946 0.761847 18.7447 -5.72205e-05 17.9933 -5.72205e-05Z" fill="white"/>
</svg>
